<svg xmlns="http://www.w3.org/2000/svg" version="1.2" width="642px" height="426px" style="shape-rendering:geometricPrecision; h3-rendering:geometricPrecision; image-rendering:optimizeQuality; fill-rule:evenodd; clip-rule:evenodd" >
<g><path style="opacity:1" fill="#fefefe" d="M -0.5,-0.5 C 213.5,-0.5 427.5,-0.5 641.5,-0.5C 641.5,141.5 641.5,283.5 641.5,425.5C 427.5,425.5 213.5,425.5 -0.5,425.5C -0.5,283.5 -0.5,141.5 -0.5,-0.5 Z"/></g>
<g><path style="opacity:1" fill="#0c0c0c" d="M 257.5,97.5 C 267.506,97.3335 277.506,97.5002 287.5,98C 300.657,98.4726 310.49,104.306 317,115.5C 317.243,124.543 316.909,133.543 316,142.5C 318.513,145.285 321.679,146.618 325.5,146.5C 341.476,145.235 355.476,139.402 367.5,129C 377.5,120.333 387.5,111.667 397.5,103C 400.206,101.092 403.206,100.259 406.5,100.5C 406.703,102.39 406.037,103.89 404.5,105C 363.768,132.063 330.935,166.563 306,208.5C 300.967,216.704 296.134,225.037 291.5,233.5C 310.104,230.447 328.77,226.613 347.5,222C 386.09,179.384 429.423,142.718 477.5,112C 487.088,106.694 497.088,102.36 507.5,99C 516.987,96.6914 526.321,97.0247 535.5,100C 538.805,102.619 540.805,105.953 541.5,110C 540.288,120.586 536.455,130.086 530,138.5C 513.332,156.256 494.166,170.756 472.5,182C 439.964,198.623 405.964,211.29 370.5,220C 344.075,251.421 319.575,284.255 297,318.5C 290.355,329.123 285.355,340.456 282,352.5C 280.65,359.792 283.15,365.292 289.5,369C 297.776,370.171 305.776,369.171 313.5,366C 328.56,358.918 342.56,350.252 355.5,340C 370.96,327.542 386.127,314.709 401,301.5C 401.387,305.165 399.887,307.998 396.5,310C 379.458,324.711 362.125,339.044 344.5,353C 335.682,359.133 326.348,364.466 316.5,369C 307.06,372.827 297.394,373.827 287.5,372C 278.217,366.773 273.884,358.773 274.5,348C 275.768,329.194 281.268,311.694 291,295.5C 305.139,271.022 321.972,248.522 341.5,228C 323.687,230.529 306.02,234.029 288.5,238.5C 256.762,283.408 217.762,320.574 171.5,350C 151.379,364.057 129.045,371.89 104.5,373.5C 88.6008,373.41 81.7675,365.41 84,349.5C 86.7465,340.007 91.0799,331.34 97,323.5C 110.725,307.435 126.559,293.935 144.5,283C 181.993,260.613 222.327,245.946 265.5,239C 291.489,205.449 319.822,173.782 350.5,144C 341.228,146.521 331.728,148.355 322,149.5C 314.16,149.681 308.494,146.348 305,139.5C 304.582,130.112 304.916,120.778 306,111.5C 303.306,106.481 299.139,103.314 293.5,102C 262.072,96.36 233.405,102.693 207.5,121C 192.876,132.743 185.71,147.91 186,166.5C 189.014,176.845 195.847,183.011 206.5,185C 234.453,187.188 258.786,178.855 279.5,160C 281.146,158.599 282.813,158.432 284.5,159.5C 265.87,177.994 243.37,187.66 217,188.5C 191.354,189.191 180.021,176.858 183,151.5C 192.369,126.466 209.869,109.966 235.5,102C 242.905,100.16 250.239,98.6598 257.5,97.5 Z"/></g>
<g><path style="opacity:1" fill="#fcfcfc" d="M 515.5,100.5 C 520.511,100.334 525.511,100.501 530.5,101C 537.053,103.73 539.22,108.563 537,115.5C 535.06,122.047 532.06,128.047 528,133.5C 516.956,147.552 503.789,159.052 488.5,168C 452.384,189.148 414.051,204.815 373.5,215C 405.552,175.271 442.886,141.604 485.5,114C 495.135,108.412 505.135,103.912 515.5,100.5 Z"/></g>
<g><path style="opacity:1" fill="#fdfdfd" d="M 256.5,244.5 C 257.873,244.343 259.207,244.51 260.5,245C 236.159,283.679 205.826,317.013 169.5,345C 154.607,355.612 138.273,363.279 120.5,368C 112.889,369.478 105.222,369.812 97.5,369C 88.0173,364.853 84.8506,357.687 88,347.5C 91.729,338.37 96.729,330.037 103,322.5C 126.256,298.927 153.09,280.427 183.5,267C 207.239,257.139 231.572,249.639 256.5,244.5 Z"/></g>
<g><path style="opacity:1" fill="#0a0a0a" d="M 406.5,346.5 C 416.378,347.135 418.045,351.302 411.5,359C 406.292,361.879 402.958,360.546 401.5,355C 402.137,351.537 403.803,348.704 406.5,346.5 Z"/></g>
</svg>
